<svg width="100" height="100" viewBox="0 0 100 100" fill="none" xmlns="http://www.w3.org/2000/svg">
  <path fill-rule="evenodd" clip-rule="evenodd" d="M0 0H100V100H0V0ZM99 1H1V99H99V1Z" fill="rgba(0, 0, 0, 0.05)"/>
  <path fill-rule="evenodd" clip-rule="evenodd" d="M10 0H11V100H10V0Z" fill="rgba(0, 0, 0, 0.03)"/>
  <path fill-rule="evenodd" clip-rule="evenodd" d="M20 0H21V100H20V0Z" fill="rgba(0, 0, 0, 0.03)"/>
  <path fill-rule="evenodd" clip-rule="evenodd" d="M30 0H31V100H30V0Z" fill="rgba(0, 0, 0, 0.03)"/>
  <path fill-rule="evenodd" clip-rule="evenodd" d="M40 0H41V100H40V0Z" fill="rgba(0, 0, 0, 0.03)"/>
  <path fill-rule="evenodd" clip-rule="evenodd" d="M50 0H51V100H50V0Z" fill="rgba(0, 0, 0, 0.03)"/>
  <path fill-rule="evenodd" clip-rule="evenodd" d="M60 0H61V100H60V0Z" fill="rgba(0, 0, 0, 0.03)"/>
  <path fill-rule="evenodd" clip-rule="evenodd" d="M70 0H71V100H70V0Z" fill="rgba(0, 0, 0, 0.03)"/>
  <path fill-rule="evenodd" clip-rule="evenodd" d="M80 0H81V100H80V0Z" fill="rgba(0, 0, 0, 0.03)"/>
  <path fill-rule="evenodd" clip-rule="evenodd" d="M90 0H91V100H90V0Z" fill="rgba(0, 0, 0, 0.03)"/>
  <path fill-rule="evenodd" clip-rule="evenodd" d="M0 10H100V11H0V10Z" fill="rgba(0, 0, 0, 0.03)"/>
  <path fill-rule="evenodd" clip-rule="evenodd" d="M0 20H100V21H0V20Z" fill="rgba(0, 0, 0, 0.03)"/>
  <path fill-rule="evenodd" clip-rule="evenodd" d="M0 30H100V31H0V30Z" fill="rgba(0, 0, 0, 0.03)"/>
  <path fill-rule="evenodd" clip-rule="evenodd" d="M0 40H100V41H0V40Z" fill="rgba(0, 0, 0, 0.03)"/>
  <path fill-rule="evenodd" clip-rule="evenodd" d="M0 50H100V51H0V50Z" fill="rgba(0, 0, 0, 0.03)"/>
  <path fill-rule="evenodd" clip-rule="evenodd" d="M0 60H100V61H0V60Z" fill="rgba(0, 0, 0, 0.03)"/>
  <path fill-rule="evenodd" clip-rule="evenodd" d="M0 70H100V71H0V70Z" fill="rgba(0, 0, 0, 0.03)"/>
  <path fill-rule="evenodd" clip-rule="evenodd" d="M0 80H100V81H0V80Z" fill="rgba(0, 0, 0, 0.03)"/>
  <path fill-rule="evenodd" clip-rule="evenodd" d="M0 90H100V91H0V90Z" fill="rgba(0, 0, 0, 0.03)"/>
</svg>
